<?xml version="1.0" standalone="no"?>
<svg xmlns="http://www.w3.org/2000/svg" width="48" height="48">
  <rect width="48" height="48" opacity="0"></rect>
  <g transform="translate(6, 6) scale(0.75)">
    <path d="M16.03 32.3Q12.38 28.66 9.6 24.74Q6.82 20.83 5.14 16.8Q3.74 20.4 3.74 24.1Q3.74 29.57 6.46 34.18Q9.17 38.78 13.78 41.5Q18.38 44.21 23.86 44.21Q27.7 44.21 31.15 42.82Q26.21 40.42 22.9 38.11Q19.58 35.81 16.03 32.3ZM7.49 12.53Q8.78 16.9 11.76 21.29Q14.74 25.68 18.53 29.47Q22.32 33.26 26.71 36.24Q31.1 39.22 35.42 40.51Q39.36 37.73 41.69 33.41Q44.02 29.09 44.02 24.1Q44.02 18.62 41.3 13.99Q38.59 9.36 33.96 6.65Q29.33 3.94 23.86 3.94Q18.86 3.94 14.57 6.26Q10.27 8.59 7.49 12.53Z" fill="rgba(10,89,247,1)"></path>
    <path d="M43.06 37.25Q42.34 37.15 41.76 37.56Q41.18 37.97 41.04 38.69Q40.8 39.65 40.32 40.13Q39.65 40.8 38.4 40.87Q37.15 40.94 35.42 40.51Q34.51 41.14 33.41 41.76Q32.3 42.38 31.15 42.82Q35.28 44.5 37.82 44.5Q39.41 44.5 40.66 44.04Q41.9 43.58 42.77 42.62Q44.06 41.38 44.5 39.31Q44.59 38.59 44.21 37.99Q43.82 37.39 43.06 37.25ZM5.28 5.18Q3.55 6.91 3.53 9.94Q3.5 12.96 5.14 16.8Q5.57 15.84 6 15Q6.43 14.16 7.01 13.3L7.49 12.53Q7.01 10.85 7.06 9.58Q7.1 8.3 7.78 7.63Q8.02 7.39 8.33 7.25Q8.64 7.1 9.12 7.01Q9.89 6.82 10.25 6.22Q10.61 5.62 10.51 4.9Q10.32 4.18 9.7 3.79Q9.07 3.41 8.4 3.55Q6.48 3.89 5.28 5.18Z" fill="rgba(180,208,255,1)"></path>
    <path d="M35.42 40.51Q31.1 39.22 26.64 36.17Q22.18 33.12 18.53 29.47Q14.74 25.68 11.76 21.29Q8.78 16.9 7.49 12.48L7.1 13.15Q6.48 14.11 5.95 15.05Q5.42 15.98 5.14 16.8Q6.82 20.88 9.62 24.82Q12.43 28.75 16.03 32.3Q19.68 35.9 22.92 38.16Q26.16 40.42 31.15 42.82Q32.3 42.43 33.38 41.81Q34.46 41.18 35.42 40.51Z" fill="rgba(180,208,255,1)"></path>
  </g>
</svg>